<?xml version="1.0" encoding="utf-8"?>
<!-- Generator: Adobe Illustrator 23.1.0, SVG Export Plug-In . SVG Version: 6.00 Build 0)  -->
<svg version="1.1" id="Layer_14" xmlns="http://www.w3.org/2000/svg" xmlns:xlink="http://www.w3.org/1999/xlink" x="0px" y="0px"
	 viewBox="0 0 800 600" style="enable-background:new 0 0 800 600;" xml:space="preserve">
<style type="text/css">
	.st0{opacity:0.2;fill:url(#SVGID_1_);enable-background:new    ;}
	.st1{opacity:0.2;fill:url(#SVGID_2_);enable-background:new    ;}
	.st2{fill:#6D4C41;}
	.st3{fill:#8D6E63;}
	.st4{fill:#A1887F;}
	.st5{fill:#795548;}
	.st6{fill:#FFCCBC;}
	.st7{fill:#424242;}
	.st8{fill:#444B54;}
	.st9{fill:#595959;}
	.st10{fill:#7F7F7F;}
	.st11{fill:#7986CB;}
	.st12{fill:#9FA8DA;}
	.st13{fill:#FFE0B2;}
	.st14{fill:#F59399;}
	.st15{fill:none;stroke:#EEEEEE;stroke-width:4;stroke-miterlimit:10;}
	.st16{fill:#EEEEEE;}
</style>
<g>
	<g>
		
			<linearGradient id="SVGID_1_" gradientUnits="userSpaceOnUse" x1="476.7732" y1="2481.3267" x2="476.7732" y2="2508.1199" gradientTransform="matrix(1 0 0 -1 0 3028)">
			<stop  offset="0" style="stop-color:#FFFFFF"/>
			<stop  offset="1" style="stop-color:#E0E0E0"/>
		</linearGradient>
		<path class="st0" d="M678.4,519.9L678.4,519.9c0,14.8-12.6,26.8-28.2,26.8H303.4c-15.6,0-28.2-12-28.2-26.8H678.4z"/>
		
			<linearGradient id="SVGID_2_" gradientUnits="userSpaceOnUse" x1="129.8722" y1="2501.0691" x2="129.8722" y2="2527.8621" gradientTransform="matrix(1 0 0 -1 0 3028)">
			<stop  offset="0" style="stop-color:#FFFFFF"/>
			<stop  offset="1" style="stop-color:#E0E0E0"/>
		</linearGradient>
		<path class="st1" d="M223,500.1L223,500.1c0,14.8-12.6,26.8-28.2,26.8H65c-15.6,0-28.2-12-28.2-26.8H223z"/>
	</g>
	<g>
		<path class="st2" d="M141.2,497.3h36.7c0.8,0,1.5-0.7,1.4-1.5c-0.1-1.7-1.4-5.6-7-5.6c0,0-2.2,0.3-5,0.7c-4.9,0.7-8.7-3.1-9.1-3.5
			L141.2,497.3z"/>
		<g>
			<path class="st3" d="M191.9,498.5c-0.1,0.9-0.5,1.7-1.4,1.7h-5.3c-1,0-1.9-0.5-2.4-1.4l-0.5-0.8c-0.2-0.4-0.3-0.8-0.3-1.2v-3.6
				c-1.4-5.6-4.2-15.5-4.2-15.5c-2.7-8.2-2.8-14.8-2.8-15.1c-3.2,7.3-6.5,10.6-6.5,10.6c-0.4,15.5-13.7,19.7-13.3,20.1
				c0.4,0.4,5.6,1.1,8.5,0.7c2.8-0.4,5-0.7,5-0.7c6.2,0,7.7,3.8,7.7,5.5c0,0.8-0.6,1.6-1.4,1.6h-52.2c-5.5,0-10-1.2-14.4-2.3
				c-3.8-1-7.3-1.9-11-1.9c-6.9,0-8.4,1.8-8.5,2.1c-0.3,1.3-1.4,2.1-2.7,2.1c-0.1,0-0.2,0-0.4,0c-1.6-0.2-2.6-1.6-2.4-3.1
				c0.1-1.1,1.5-6.7,14.1-6.7c4.4,0,8.5,1.1,12.4,2.1c4,1.1,8.2,2.1,13,2.1c0.1,0,0.2,0,0.3,0h0.1c2.7,0,3.8-2.4,3.8-4.9
				c0-15.5,3.6-24.3,8.7-32.8c5.4-9.1,18.1-18.4,18.1-18.4c2.8-5.2,7.6-5.5,8.4-8.8c0.8-3.2-2.3-7.1-5.6-12.7
				c-4.2-7.1-2.7-16-2.7-16c0.3,0.5,0.7,0.9,1.1,1.3c8.8,9.6,16.7,12.3,18.8,14c0.3,0.3,17.2,12.9,17.3,20.4
				c0.1,7.3-1.6,12.8-3.3,15.4c0,0.1-0.1,0.1-0.1,0.1c-1.1,1.6-1.4,2.9-1.4,4.9v6.4c0,5.6-1.2,10.5,0,14.1
				c1.5,4.8,1.4,16.9,1.4,16.9C190.5,494.5,192.1,497.3,191.9,498.5z"/>
		</g>
		<path class="st2" d="M178.8,410.7c0.6-1.6,5.3-5,8.9-6.6s4-3.6,4-3.6l0.8-5.6c2.4-12.1,7.7-21.8,7.7-21.8c0-1.6,0-4,1.2-4.8
			c1.2-0.8,1.2-2,3.2-4c0.6-0.6,1.2-0.9,1.7-0.9c1.1-0.1,3,1.2,4.6,2.7c1.8,1.6,0.7,8.6-5.5,13.1c-1.6,1.2-1.8,2.9-2.2,11
			c-0.4,8.1-2.6,16-2.6,16c-4,6.8-7.3,17.7-8.9,21c0,0,0.2,5.4,0.2,9.6C191.9,436.7,183,417,178.8,410.7z"/>
		<path class="st4" d="M165.1,411.3c0,0,1.1,1.1,3.4,3.2c2.9,2.6,7.8,6.8,14.9,12.3c12,9.3,5.1,23.7,4.3,25.3
			c1.7-2.6,4.3-8.1,4.2-15.4c-0.1-7.5-9.8-19.9-11.6-26.4c-0.5-1.8-0.6-1.7-0.5-1.8l-0.4,0L165.1,411.3z"/>
		<path class="st3" d="M168.5,414.5c1.7,0.2,3.4,0.1,5-0.4c1.5-0.4,4.7-2.5,7.2-5.1c1.3-1.3,1.2-5.4,1.2-5.6c0-2-0.5-2.7-0.5-2.7
			c0.4-1.6-0.5-2.7-0.5-2.7c-2.8,0-4.9-0.5-4.9-0.5s-0.3-0.5-1.5-1.3c-1.2-0.8-9.5-0.3-9.5-0.3c0.8-3.2-1.4-8.6-1.4-8.6
			s-0.6,3.6-1.4,5.6c-0.8,2-2.8,4.2-2.8,4.2c-1.6,2-2.8,1.4-4.2,4.2c-0.1,0.3-0.2,0.5-0.3,0.8C154.1,406.5,160.9,413.6,168.5,414.5z
			"/>
		<path class="st5" d="M181.6,400.7c0.4-1.6-0.5-2.7-0.5-2.7c-1.1,0.3-1.7,1.5-1.7,1.5C181,399.8,181.6,400.7,181.6,400.7z"/>
		<path class="st5" d="M154.4,395.8c0,0,3,0.4,5.1,3c0.8,1.1,1.7,1.6,2.4,1.9c1,0.5,1.6,1.6,1.5,2.7l-0.7,4.4
			c-0.2,1.1-1.4,1.7-2.4,1.2c-1.1-0.6-2.5-1.6-4.1-3.4C152.7,401.9,154,398.1,154.4,395.8z"/>
		<path class="st5" d="M171.3,401.8c0.4-1.1,0.6-2.6,1.6-2.6c1-0.1,1.9,0.5,2,1.5c0,0.2-0.1,0.7-0.1,0.7
			C174.4,402.1,173.4,401.7,171.3,401.8z"/>
	</g>
	<g>
		<path class="st6" d="M467.5,120.5c0,0-4.9-1.6-4.9-9.3c0-4.6,0.6-16.1,2.4-21.2c0.7-2.1,3.7-2.1,4.4,0L478,119L467.5,120.5z"/>
		<path class="st7" d="M622.2,452.2l9.8,4c0,0,5.9,2.4,3.6,8.1c-3.9,9.5-9.8,24.3-11.6,28.6c-0.3,0.7-1.2,1.1-1.9,0.7
			c-2.2-1-6.2-3.9-4.5-11.7c3.7-15.2-0.5-16.9-0.5-16.9L622.2,452.2z"/>
		<path class="st7" d="M528.7,481.8l2.6,10.2c0,0,1.5,6.1-4.4,7.6c-10,2.5-25.4,6.4-30,7.5c-0.8,0.2-1.6-0.3-1.7-1.1
			c-0.5-2.4-0.5-7.3,6.8-10.5c14.5-5.9,13.4-10.4,13.4-10.4L528.7,481.8z"/>
		<path class="st6" d="M606.2,298.5c0,0,6.7,1.6,11.8,6.6c3.4,3.3-0.3,13.2-6.7,13.2c-8.4,0-11.8-13.2-11.8-13.2L606.2,298.5z"/>
		<path class="st6" d="M507.8,174.4c0,0,25.4-0.1,25.4,18.3c0,26.1-26.4,32.4-26.4,32.4l-7.5-50.7H507.8z"/>
		<path class="st8" d="M516.3,182.9c-4,6.1-2.6,9.3-2.3,14c0.2,3.1-4.1,5.2-4.1,5.2l3.1,3.1c0,0,3.3-6.8,8.3-6.8
			c4.6,0,4.3,6.1,2.1,8.3c-2.2,2.2-10.3,7.7-10.3,7.7l4.6,7.7c7.1-3.8,17.1-13.7,17.1-29.3c0-18.4-26.3-19.7-26.3-19.7h-9v2.9
			C499.3,175.9,506.7,181.5,516.3,182.9z"/>
		<path class="st9" d="M502.2,327.9l6.1,79.7l4.6,78.6l18.4-3.1c0,0,9.2-57.1,7.7-72.4c-0.4-4.5-6.1-16.9-6.1-16.9L502.2,327.9z"/>
		<path class="st10" d="M489.9,318.7c0,0,11.8,40,41.2,95c1.1,2.1,2.7,3.8,4.6,5.1l79.7,49.8l8.1-15.9
			c-50.6-53.7-72.3-57.4-72.3-57.4s-1.5-61.3-13.8-88.9C512.9,304.8,489.9,318.7,489.9,318.7z"/>
		<path class="st11" d="M600.3,307.9c0,0-33.9-22.3-35.3-23c-3.1-1.5-29.1-13.8-29.1-13.8l4.3-29l31,24.4c0,0,7.7,1.5,36.8,32.2
			L600.3,307.9z"/>
		<path class="st12" d="M479.8,117.4c0,0,16.5,39.2,19.6,52.1c2.5,10.5,8.4,28,12,32.6c4.4,5.5,30.3,32.1,30.3,42.8
			c0,12.3-3.9,39.3,2.3,83c-9.2,0-31.1,1.4-49.5,15.2c0,0-10.5-47.5-10.5-81.6c0-29.4,4-47.7,4-47.7s-9.9-33.8-11.3-43.7
			c-1.2-8.7-2.8-12.7-10.8-49.7L479.8,117.4z"/>
	</g>
	<g>
		<path class="st13" d="M418.7,119.2c-0.7-4.5-2.5-17.8-5.1-22.6c-1-1.9-3.9-1.5-4.3,0.7l-3.6,31.9c-3.8,18.4-10.2,46.3-10.2,46.3
			s3.5,9.2,13.8,4.9c4.6-17.3,5.3-51.1,5.3-51.1S420,127.3,418.7,119.2z"/>
		<path class="st14" d="M409.4,180.4c-5.2,19.5-32.8,57-32.8,57l-22.5-16.2l41.5-45.6C395.6,175.5,400.6,181.8,409.4,180.4z"/>
		<path class="st7" d="M328.8,436.1L322,444c0,0-4.1,4.7,0.2,8c7.1,5.4,18.2,13.9,21.5,16.4c0.6,0.5,1.5,0.4,2-0.3
			c1.5-1.9,3.8-6.1-0.9-11.3c-9.4-9.9-6.5-13.4-6.5-13.4L328.8,436.1z"/>
		<g>
			<path class="st7" d="M286.8,373.3l-10.3-2.7c0,0-6.2-1.6-7.2,3.6c-1.8,8.6-4.5,21.8-5.3,25.8c-0.2,0.8,0.3,1.5,1.1,1.7
				c2.4,0.5,7.3,0.8,10-5.5c4.9-12.5,9.4-11.3,9.4-11.3L286.8,373.3z"/>
		</g>
		<path class="st3" d="M373.8,314l6.5,79.2c0.1,2.9-1.2,5.8-3.4,7.7l-37.9,44.3l-11.4-7.8c0,0,21.4-36.6,29.2-42.9
			c1.5-4.3,0-18.3,0-18.3L373.8,314z"/>
		<path class="st13" d="M354.1,173.3c10.9,0.1,25.4,2.8,25.4,28.2c0,2.8-1.4,10.9-8,10.9s-32.2-7.5-32.2-23.1
			C339.3,175.4,347.6,173.3,354.1,173.3z"/>
		<path class="st13" d="M366.8,219.5c0-4.2,1-7,5-9.9c5-3.5-18.4-4.8-18.4-4.8s-1,5.1-2.3,12c-2.7,14.3,21.4,18.2,22.2,15.9
			C369.7,229.3,366.8,225.2,366.8,219.5z"/>
		<path class="st4" d="M341.8,304.2c-0.8,2.7-1.6,5.5-2.1,8.6c-2,12.6-1.1,32.2,3.1,66c-8.1-5.1-57.7-6-57.7-6l-2.3,13.3l65.5,14.8
			c4.5,0.7,8.9-1.9,10.6-6.2c0,0,14.9-52.6,17.8-87.9C361.1,306.9,341.6,304.2,341.8,304.2z"/>
		<path class="st14" d="M373.3,232.7c-7.9-0.5-15-7.6-22.2-15.9c-2.7,14.3-7,36.3-7.3,35.8c0,0,3.6,13,4.5,20
			c1.4,11.9-6.6,31.5-6.4,31.5c16.5,5.6,27.8,9.8,34.4,8.1c0.2-1.8,0.4-3.6,0.5-5.4c1.5-18.3,3.5-38.2,3.5-38.2
			c0.4-5.6,4.9-15.4,4.9-21.1C385.1,241.8,378.6,237.9,373.3,232.7z"/>
		<path class="st13" d="M331.6,283.2c0,0,9.2,17.3,19.6,30.4c4.5,5.6,8.6,6.2,8.6,12.7c0,3.4-2.8,4.6-6.3,4.6c-5,0-7.8,0-7.8-5.7
			c0-3.3-0.5-2.8-1.9-7c-2.3-6.9-20.4-18.3-27.7-31.8C328.1,266.9,331.6,283.2,331.6,283.2z"/>
		<path class="st14" d="M348.5,221.1c8.6,0,14,9.5,4.9,22.4c-6.9,9.8-10.6,15.3-15.5,24c-4.6,8.2-6.3,15.7-6.3,15.7
			s-1.8-7.2-15.6,3.2c0,0,2.5-23.7,9.2-37.3C331.9,235.5,340.4,221.1,348.5,221.1z"/>
		<path class="st7" d="M297,253.4c3-5.6-5.9-11.4,0-19.7c5.9-8.3,14.1-5.6,14.1-15.5c0-6.3,2.8-16.9,12.7-18.3
			c5.8-0.8,8.8-2.7,9.9-7.1c3.8-15.6,11.3-21.2,22.8-21.1c4.9,0,10.8,0.6,14.3,4.7c0.6,0.7,0.9,1.6,0.8,2.6
			c-1.9,21.5-12.5,13.4-14.4,37.6c-0.9,11.6-22.6,29.7-30.6,38.3c-2.1,2.3-9.6,11.7-14.4,9.6c-7.7-3.4-10.7,2.3-14.9-0.6
			C294.2,261.6,294.1,258.9,297,253.4z"/>
	</g>
	<g>
		<path class="st15" d="M458.4,501.5c2.7,1.8,10.1,3,17.9,2.1"/>
		<path class="st15" d="M723.6,499.5c3.1-0.8,8.9-5.6,13.4-12"/>
		<path class="st15" d="M409.3,497.8c3.2-0.2,9.8-3.8,15.5-9.2"/>
		<polygon class="st16" points="600.7,509.9 595.2,502.4 603.6,500.1 608.2,504.5 		"/>
		<polygon class="st16" points="681,509.9 675.6,502.4 684,500.1 688.5,504.5 		"/>
		<polygon class="st16" points="350.8,504.4 345.4,496.9 353.8,494.6 358.3,498.9 		"/>
		<path class="st15" d="M555.1,487.7c0,0,2.9,6.9-4.2,5.1c-8.5-2.2-6.1,7.3-6.1,7.3"/>
		<path class="st15" d="M283.5,497.7c0,0-5.5,5.2-6.2-2.2c-0.9-8.8-9-3.1-9-3.1"/>
	</g>
</g>
</svg>
