<svg id="Layer_14" data-name="Layer 14" xmlns="http://www.w3.org/2000/svg" xmlns:xlink="http://www.w3.org/1999/xlink" viewBox="0 0 745.54 489.1"><defs><style>.cls-1{fill:url(#radial-gradient);}.cls-2{fill:#fefefe;}.cls-3{fill:url(#linear-gradient);}.cls-4{fill:url(#linear-gradient-2);}.cls-5{fill:url(#linear-gradient-3);}.cls-6{fill:url(#linear-gradient-4);}.cls-7{fill:url(#linear-gradient-5);}.cls-8{fill:url(#linear-gradient-6);}.cls-9{fill:url(#linear-gradient-7);}.cls-10{fill:url(#linear-gradient-8);}.cls-11{fill:#fafafa;}.cls-12{fill:url(#linear-gradient-9);}.cls-13{fill:url(#linear-gradient-10);}.cls-14{opacity:0.25;isolation:isolate;fill:url(#linear-gradient-11);}.cls-15{fill:#f2d5d3;}.cls-16{fill:#4db6ac;}.cls-17{fill:#01579b;}.cls-18{fill:#424242;}.cls-19,.cls-25{fill:none;stroke-miterlimit:10;}.cls-19{stroke:#bdbdbd;stroke-width:3px;}.cls-20{fill:#ef5350;}.cls-21{fill:#d32f2f;}.cls-22{fill:#1a68a5;}.cls-23{fill:#2770aa;}.cls-24{fill:#80cbc4;}.cls-25{stroke:#80cbc4;stroke-linecap:round;stroke-width:2px;}.cls-26{fill:#fff;}</style><radialGradient id="radial-gradient" cx="-4256.94" cy="157.63" r="172.82" gradientTransform="translate(2444.26 25.27) scale(0.45 0.47)" gradientUnits="userSpaceOnUse"><stop offset="0" stop-color="#e0e0e0"/><stop offset="0.59" stop-color="#f5f5f5" stop-opacity="0.41"/><stop offset="1" stop-color="#fff" stop-opacity="0"/></radialGradient><linearGradient id="linear-gradient" x1="355.39" y1="502.11" x2="280.8" y2="427.52" gradientTransform="translate(-26 -256)" gradientUnits="userSpaceOnUse"><stop offset="0" stop-color="#fff" stop-opacity="0"/><stop offset="1" stop-color="#fafafa"/></linearGradient><linearGradient id="linear-gradient-2" x1="260.34" y1="509.64" x2="322.15" y2="447.84" gradientTransform="translate(-26 -256)" gradientUnits="userSpaceOnUse"><stop offset="0" stop-color="#fff" stop-opacity="0"/><stop offset="1" stop-color="#f5f5f5"/></linearGradient><linearGradient id="linear-gradient-3" x1="268.45" y1="560.03" x2="179.63" y2="471.21" gradientTransform="translate(-26 -256)" gradientUnits="userSpaceOnUse"><stop offset="0" stop-color="#fff"/><stop offset="1" stop-color="#f5f5f5"/></linearGradient><linearGradient id="linear-gradient-4" x1="55.84" y1="675.84" x2="243.26" y2="488.42" gradientTransform="translate(0 -192)" gradientUnits="userSpaceOnUse"><stop offset="0" stop-color="#fff" stop-opacity="0"/><stop offset="0.35" stop-color="#fafafa" stop-opacity="0.35"/><stop offset="0.77" stop-color="#ebebeb" stop-opacity="0.77"/><stop offset="1" stop-color="#e0e0e0"/></linearGradient><linearGradient id="linear-gradient-5" x1="568.22" y1="505.97" x2="494.64" y2="432.39" gradientTransform="translate(0 -192)" xlink:href="#linear-gradient"/><linearGradient id="linear-gradient-6" x1="463.95" y1="532.86" x2="545.91" y2="450.89" gradientTransform="translate(-26 -256)" gradientUnits="userSpaceOnUse"><stop offset="0" stop-color="#fff" stop-opacity="0"/><stop offset="0.35" stop-color="#f9f9f9" stop-opacity="0.35"/><stop offset="1" stop-color="#f5f5f5"/></linearGradient><linearGradient id="linear-gradient-7" x1="734.41" y1="660.58" x2="564.32" y2="490.49" gradientTransform="translate(-26 -256)" gradientUnits="userSpaceOnUse"><stop offset="0" stop-color="#fff" stop-opacity="0"/><stop offset="0.84" stop-color="#f7f7f7" stop-opacity="0.84"/><stop offset="1" stop-color="#f5f5f5"/></linearGradient><linearGradient id="linear-gradient-8" x1="563.95" y1="623.81" x2="657.25" y2="530.51" gradientTransform="translate(-26 -256)" gradientUnits="userSpaceOnUse"><stop offset="0" stop-color="#fff" stop-opacity="0"/><stop offset="0" stop-color="#fff" stop-opacity="0"/><stop offset="0.61" stop-color="#e8e8e8" stop-opacity="0.61"/><stop offset="1" stop-color="#e0e0e0"/></linearGradient><linearGradient id="linear-gradient-9" x1="158" y1="579.93" x2="392.97" y2="579.93" gradientTransform="translate(-26 -256)" gradientUnits="userSpaceOnUse"><stop offset="0" stop-color="#fff" stop-opacity="0"/><stop offset="1" stop-color="#bdbdbd"/></linearGradient><linearGradient id="linear-gradient-10" x1="223.57" y1="662" x2="223.57" y2="580.34" gradientTransform="translate(-26 -256)" gradientUnits="userSpaceOnUse"><stop offset="0" stop-color="#fff" stop-opacity="0"/><stop offset="0.07" stop-color="#f8f8f8" stop-opacity="0.07"/><stop offset="0.28" stop-color="#eaeaea" stop-opacity="0.28"/><stop offset="0.54" stop-color="#e2e2e2" stop-opacity="0.54"/><stop offset="1" stop-color="#e0e0e0"/></linearGradient><linearGradient id="linear-gradient-11" x1="416.1" y1="537.08" x2="410.65" y2="499.45" gradientTransform="translate(0 -192)" gradientUnits="userSpaceOnUse"><stop offset="0" stop-color="#fff" stop-opacity="0"/><stop offset="0.15" stop-color="#dadada" stop-opacity="0.15"/><stop offset="0.32" stop-color="#b6b6b6" stop-opacity="0.32"/><stop offset="0.49" stop-color="#999" stop-opacity="0.49"/><stop offset="0.66" stop-color="#858585" stop-opacity="0.66"/><stop offset="0.83" stop-color="#797979" stop-opacity="0.83"/><stop offset="1" stop-color="#757575"/></linearGradient></defs><title>fogg-unsubscribed-transparent</title><circle class="cls-1" cx="538" cy="100" r="100"/><circle class="cls-2" cx="538" cy="100" r="29"/><polygon class="cls-3" points="335 240.5 308.29 240.1 284.74 229.29 275.65 205.02 278.67 189.82 265.31 161 294.13 188.59 302.99 191.88 323.15 224.12 335 240.5"/><polygon class="cls-4" points="311.17 238.5 265.03 281.44 245.58 264.88 212.25 222.45 235.94 191.88 245.7 181.62 265.31 161 278.7 189.81 275.68 205.02 284.78 229.29 311.17 238.5"/><polygon class="cls-5" points="265.03 281.44 215.21 328.04 206.29 323.06 202.46 300.7 182.47 277.72 177.62 262.21 186.81 254.6 176.84 192 176.93 192.05 198.25 204.65 212.25 222.45 245.58 264.88 265.03 281.44"/><path class="cls-6" d="M175.17,454H26l.12-.14a1.41,1.41,0,0,0,.15-.35c1-3.26,6.3-27.87,33.17-61.77L69.08,377l15.66-4.22,49.36-51.39L162.23,304l40.61-48,10,62.6-9.19,7.61,4.84,15.51,20,23L232.21,387l9,5Z" transform="translate(-26 -64)"/><path class="cls-7" d="M548.25,326.6l-1.42-5.25-15.74-10.06-1.88-23,2.64-11.69-11.43-17.06,3.81-13.53L511,224s31.37,26.7,32.38,34l12.77,10.72,5,11.67,18.1,15-7.44,14.93Z" transform="translate(-26 -64)"/><polygon class="cls-8" points="522.25 262.6 479.59 292.01 471.45 296.37 446.02 265.46 419.69 248.89 408.12 246.93 408 246.91 435.37 209.39 449.59 206.74 454.68 198.44 485.02 160 498.18 182.23 494.47 195.66 505.86 212.64 503.22 224.33 505.09 247.29 520.83 257.35 522.25 262.6"/><polygon class="cls-9" points="635.17 397 623.25 319.94 585.92 276.78 587.52 249.94 564.77 208.03 622.52 253.04 628.22 269.85 716 397 635.17 397"/><polygon class="cls-10" points="637.83 405.86 578 405.86 504.09 324.19 494.33 324.19 471.45 296.37 479.59 292.01 545.87 246.31 564.77 208.03 564.78 208.04 587.51 249.91 587.51 249.93 587.52 249.94 585.94 276.64 585.93 276.77 611.47 306.32 623.25 319.95 635.14 396.85 637.83 405.86"/><polygon class="cls-11" points="578 405.86 263.14 405.86 255.32 350.81 239.41 324.19 279.71 345.6 291.45 331.37 305.5 288.43 323.91 283.44 366.96 242 419.69 248.89 446.02 265.46 494.33 324.19 504.09 324.19 578 405.86"/><polygon class="cls-12" points="366.97 242 323.92 283.44 305.5 288.43 291.45 331.37 279.71 345.6 239.42 324.19 132 405.85 305.81 243.31 366.97 242"/><polygon class="cls-13" points="263.15 406 132 406 239.42 324.34 255.32 350.96 263.15 406"/><path class="cls-14" d="M355.13,342.48,393,306l52,6.41L471.24,329l3.62,4.54a6.42,6.42,0,0,1-5.63,10.39l-77-7.4-35.53,8.93A1.74,1.74,0,0,1,355.13,342.48Z" transform="translate(-26 -64)"/><path class="cls-15" d="M407,188.89c0,5.41-3,20.35-11.5,20.35S384,194.3,384,188.89s5.15-9.8,11.5-9.8S407,183.48,407,188.89Z" transform="translate(-26 -64)"/><path class="cls-16" d="M407.54,215.4c0,.55-5.37,4.1-12,4.1s-12-3.55-12-4.1,5.37-2.4,12-2.4S407.54,214.84,407.54,215.4Z" transform="translate(-26 -64)"/><path class="cls-15" d="M405.94,221.86C398.23,217,401.4,206,401.4,206H389.45s3.17,10.94-4.54,15.85C381.2,224.21,409.65,224.21,405.94,221.86Z" transform="translate(-26 -64)"/><path class="cls-17" d="M414,295H341l54.42,18.16L450,295Z" transform="translate(-26 -64)"/><path class="cls-18" d="M370.89,324s-17.89-.44-20.65,5.5,10.34,4.63,13.8,4a86.77,86.77,0,0,0,9.65-2.92Z" transform="translate(-26 -64)"/><path class="cls-18" d="M420,324s17.9-.44,20.65,5.5-10.34,4.63-13.79,4a86.47,86.47,0,0,1-9.66-2.92Z" transform="translate(-26 -64)"/><path class="cls-18" d="M384.54,179s4,2.07,1.82,6.84c-1.44,3.18-1.23,8.74-1.23,10.16A18,18,0,0,1,382,185.66C382,182.21,381.46,179,384.54,179Z" transform="translate(-26 -64)"/><path class="cls-18" d="M405.73,178s-3,2.08-1.08,7.05c1.29,3.31,1.28,9.47,1.28,10.95A19.28,19.28,0,0,0,409,185.24C409,180.27,407.67,178,405.73,178Z" transform="translate(-26 -64)"/><path class="cls-19" d="M410,191.46V185c0-8.39-6.49-12.39-14.5-12.39S381,176.59,381,185v6.48" transform="translate(-26 -64)"/><path class="cls-20" d="M386,187.9a2,2,0,0,0-4,0v12.2a2,2,0,0,0,4,0Z" transform="translate(-26 -64)"/><path class="cls-20" d="M409,187.9a2,2,0,0,0-4,0v12.2a2,2,0,0,0,4,0Z" transform="translate(-26 -64)"/><polygon class="cls-21" points="386 134.4 383 136 383 124 386 125.6 386 134.4"/><polygon class="cls-21" points="353 134.4 356 136 356 124 353 125.6 353 134.4"/><path class="cls-18" d="M386.39,186.1s-1.58-2.67-2.79-4.9-1.05-8.15,5-7.7,8.75.78,10.84.08A3.35,3.35,0,0,0,402,170s6,1.31,6,7c0,4-4.66,7-14.41,8.42A56.15,56.15,0,0,1,386.39,186.1Z" transform="translate(-26 -64)"/><path class="cls-22" d="M331,305a10.38,10.38,0,0,1,10-10c10.17,0,17.49,2.68,27.79,6.4C401,313,420,324,420,324l-2.8,6.54s-46.27-5.81-66.6-11.63C344.62,317.16,331,313.11,331,305Z" transform="translate(-26 -64)"/><path class="cls-23" d="M460,305a10.38,10.38,0,0,0-10-10c-10.17,0-17.64,2.68-27.94,6.4C389.82,313,370.89,324,370.89,324l2.8,6.54s46.27-5.81,66.6-11.63C446.23,317.16,460,313.11,460,305Z" transform="translate(-26 -64)"/><path class="cls-15" d="M444.71,293c.9.49,1.92,1,2.93,1.48a27.48,27.48,0,0,0,11.49,2.5c3.46,0,6,.05,10.65-5.72.49-.61,0-2.31-1.15-2.31a18.75,18.75,0,0,0-6,2.07c-.46-.55-2.34-1-3.5-1-4.62,0-3.94,1-6.9,1-.84,0-2.05-.9-3.46-2.35A25.84,25.84,0,0,0,444.71,293Z" transform="translate(-26 -64)"/><path class="cls-15" d="M346.34,293c-.9.49-1.92,1-2.93,1.48a28.08,28.08,0,0,1-11.6,2.47c-3.46,0-6,.06-10.62-5.71-.49-.61,0-2.31,1.15-2.31a19.13,19.13,0,0,1,6.05,2.09,5.81,5.81,0,0,1,3.39-1c4.62,0,4.05,1,7,1,.84,0,2-.9,3.46-2.36A26.68,26.68,0,0,1,346.34,293Z" transform="translate(-26 -64)"/><path class="cls-16" d="M448.8,288.69a48.12,48.12,0,0,0-4.09,4.33c-4.95-2.68-11.64-2.64-20.22-11.12a14,14,0,0,1-3-4.38C418.68,271.06,416,256,416,256v22c0,8.4,3.61,17-2,17H377c-5.61,0-2-8.6-2-17V256s-2.63,15.06-5.45,21.52a14,14,0,0,1-3,4.38c-8.58,8.48-15.27,8.44-20.22,11.12a48.12,48.12,0,0,0-4.09-4.33c3.95-4,9.46-12.56,12.81-17.93a14.08,14.08,0,0,0,1.65-3.82c1-3.65,2.89-12.94,2.89-12.94,1.4-10.52,4-21.12,10.12-23.81a108.85,108.85,0,0,0,10.3-5.28l31,.07c3,1.71,6.5,3.51,10.3,5.21,6.09,2.69,8.72,13.29,10.12,23.81,0,0,1.93,9.29,2.89,12.94a14.08,14.08,0,0,0,1.65,3.82C439.34,276.13,444.85,284.65,448.8,288.69Z" transform="translate(-26 -64)"/><path class="cls-24" d="M411,290H380a1,1,0,0,1-.94-1.33A60.05,60.05,0,0,0,382.54,272a1,1,0,0,1,1-1h24a1,1,0,0,1,1,1,60.05,60.05,0,0,0,3.48,16.69A1,1,0,0,1,411,290Z" transform="translate(-26 -64)"/><path class="cls-24" d="M383,215.85l-3.5,9.33s5.54,5.82,16,5.82,16-5.73,16-5.73l-3.5-9.42a1,1,0,0,0-1.49-.51c-1.38.86-4.49,2.09-11,2.09s-9.63-1.23-11-2.09A1,1,0,0,0,383,215.85Z" transform="translate(-26 -64)"/><circle class="cls-16" cx="365" cy="162" r="3"/><circle class="cls-16" cx="374" cy="162" r="3"/><line class="cls-25" x1="374" y1="162" x2="374" y2="188"/><line class="cls-25" x1="365" y1="162" x2="365" y2="188"/><circle class="cls-26" cx="359.92" cy="416.3" r="26.37"/><circle class="cls-26" cx="319.89" cy="401.64" r="28.36"/><circle class="cls-26" cx="277.11" cy="414.32" r="25.02"/><circle class="cls-26" cx="216.92" cy="423.14" r="44.98"/><circle class="cls-26" cx="157.61" cy="389.3" r="40.71"/><circle class="cls-26" cx="98.11" cy="390.08" r="33.06"/><circle class="cls-26" cx="72.97" cy="472.31" r="33.8" transform="translate(-77.71 -53.05) rotate(-6.34)"/><circle class="cls-26" cx="425.48" cy="416.3" r="48.63"/><circle class="cls-26" cx="500.93" cy="442.09" r="47.01"/><circle class="cls-26" cx="564.78" cy="411.47" r="35.54"/><circle class="cls-26" cx="622.66" cy="404.66" r="37.28"/><circle class="cls-26" cx="667.61" cy="376.75" r="23.91"/><circle class="cls-26" cx="707.15" cy="414.32" r="38.39"/></svg>